<svg xmlns="http://www.w3.org/2000/svg" viewBox="0 0 60 60" fill="none">
  <rect width="60" height="60" rx="8" fill="#4A90A4"/>
  <path d="M30 12C20.059 12 12 20.059 12 30C12 39.941 20.059 48 30 48C39.941 48 48 39.941 48 30C48 20.059 39.941 12 30 12ZM30 16C37.732 16 44 22.268 44 30C44 37.732 37.732 44 30 44C22.268 44 16 37.732 16 30C16 22.268 22.268 16 30 16Z" fill="white"/>
  <path d="M30 20C24.477 20 20 24.477 20 30C20 35.523 24.477 40 30 40C35.523 40 40 35.523 40 30C40 24.477 35.523 20 30 20ZM30 24C33.314 24 36 26.686 36 30C36 33.314 33.314 36 30 36C26.686 36 24 33.314 24 30C24 26.686 26.686 24 30 24Z" fill="white"/>
  <circle cx="30" cy="30" r="4" fill="white"/>
</svg>
